<svg width="177" height="177" viewBox="0 0 177 177" fill="none" xmlns="http://www.w3.org/2000/svg">
<g filter="url(#filter0_d)">
<path d="M7 27C7 15.9543 15.9543 7 27 7H132C143.046 7 152 15.9543 152 27V132C152 143.046 143.046 152 132 152H27C15.9543 152 7 143.046 7 132V27Z" fill="#303234"/>
</g>
<path fill-rule="evenodd" clip-rule="evenodd" d="M80 33C52.3894 33 30 55.9512 30 84.266C30 106.916 44.3265 126.132 64.1931 132.911C66.6919 133.386 67.6093 131.799 67.6093 130.445C67.6093 129.223 67.5629 125.184 67.5414 120.9C53.6314 124.002 50.6962 114.852 50.6962 114.852C48.4217 108.927 45.1446 107.35 45.1446 107.35C40.6081 104.169 45.4865 104.234 45.4865 104.234C50.5074 104.596 53.1511 109.518 53.1511 109.518C57.6106 117.354 64.848 115.089 67.7012 113.779C68.1508 110.466 69.4458 108.204 70.8757 106.923C59.77 105.628 48.0955 101.231 48.0955 81.5876C48.0955 75.9913 50.0487 71.4172 53.2472 67.8271C52.728 66.5358 51.0166 61.3216 53.7324 54.2601C53.7324 54.2601 57.9311 52.8831 67.4851 59.5159C71.4735 58.38 75.7508 57.8104 80 57.79C84.2492 57.8104 88.5298 58.38 92.5257 59.5159C102.069 52.8831 106.262 54.2601 106.262 54.2601C108.983 61.3216 107.272 66.5358 106.753 67.8271C109.959 71.4172 111.898 75.9913 111.898 81.5876C111.898 101.279 100.201 105.614 89.0672 106.883C90.8606 108.474 92.4586 111.593 92.4586 116.376C92.4586 123.236 92.4015 128.757 92.4015 130.445C92.4015 131.81 93.3007 133.408 95.8351 132.905C115.692 126.119 130 106.909 130 84.266C130 55.9512 107.614 33 80 33Z" fill="#C111DE"/>
<path d="M48.9378 106.606C48.8277 106.862 48.4369 106.938 48.0809 106.763C47.7174 106.595 47.5145 106.248 47.6321 105.992C47.7397 105.731 48.1305 105.658 48.4932 105.833C48.8558 106 49.0628 106.351 48.9378 106.606Z" fill="#C111DE"/>
<path d="M50.9633 108.922C50.7248 109.149 50.2579 109.044 49.9424 108.686C49.6145 108.328 49.5541 107.849 49.7959 107.62C50.0418 107.393 50.4938 107.5 50.8209 107.857C51.1488 108.219 51.2125 108.692 50.9633 108.922Z" fill="#C111DE"/>
<path d="M52.9347 111.875C52.6283 112.094 52.1266 111.889 51.8169 111.433C51.5106 110.976 51.5106 110.43 51.8244 110.211C52.134 109.992 52.6283 110.189 52.9421 110.641C53.2477 111.105 53.2477 111.651 52.9347 111.875Z" fill="#C111DE"/>
<path d="M55.6353 114.727C55.3612 115.037 54.7775 114.954 54.3503 114.53C53.9131 114.118 53.7914 113.531 54.0654 113.221C54.3436 112.911 54.9307 112.998 55.3612 113.418C55.7951 113.83 55.9267 114.421 55.6353 114.727Z" fill="#C111DE"/>
<path d="M59.3612 116.384C59.2395 116.785 58.6781 116.967 58.1118 116.796C57.5463 116.621 57.1762 116.151 57.2904 115.745C57.408 115.341 57.9727 115.151 58.5432 115.334C59.1078 115.509 59.4788 115.975 59.3612 116.384Z" fill="#C111DE"/>
<path d="M63.4534 116.691C63.4675 117.113 62.9873 117.464 62.3928 117.472C61.795 117.485 61.3106 117.143 61.304 116.727C61.304 116.3 61.7743 115.954 62.3713 115.943C62.9657 115.931 63.4534 116.271 63.4534 116.691Z" fill="#C111DE"/>
<path d="M67.2609 116.026C67.3321 116.438 66.919 116.862 66.3286 116.975C65.7482 117.084 65.2109 116.829 65.1372 116.42C65.0651 115.998 65.4849 115.574 66.0653 115.464C66.6565 115.359 67.1856 115.607 67.2609 116.026Z" fill="#C111DE"/>
<defs>
<filter id="filter0_d" x="0" y="0" width="177" height="177" filterUnits="userSpaceOnUse" color-interpolation-filters="sRGB">
<feFlood flood-opacity="0" result="BackgroundImageFix"/>
<feColorMatrix in="SourceAlpha" type="matrix" values="0 0 0 0 0 0 0 0 0 0 0 0 0 0 0 0 0 0 127 0"/>
<feOffset dx="9" dy="9"/>
<feGaussianBlur stdDeviation="8"/>
<feColorMatrix type="matrix" values="0 0 0 0 1 0 0 0 0 1 0 0 0 0 1 0 0 0 0.4 0"/>
<feBlend mode="normal" in2="BackgroundImageFix" result="effect1_dropShadow"/>
<feBlend mode="normal" in="SourceGraphic" in2="effect1_dropShadow" result="shape"/>
</filter>
</defs>
</svg>
