<svg width="177" height="177" viewBox="0 0 177 177" fill="none" xmlns="http://www.w3.org/2000/svg">
<g filter="url(#filter0_d)">
<path d="M7 27C7 15.9543 15.9543 7 27 7H132C143.046 7 152 15.9543 152 27V132C152 143.046 143.046 152 132 152H27C15.9543 152 7 143.046 7 132V27Z" fill="#303234"/>
</g>
<g filter="url(#filter1_d)">
<path d="M78.4043 57.3613C63.5369 57.3613 51.5447 68.8083 51.5447 83C51.5447 97.1917 63.5369 108.639 78.4043 108.639C93.2718 108.639 105.264 97.1917 105.264 83C105.264 68.8083 93.2718 57.3613 78.4043 57.3613ZM78.4043 99.6685C68.7966 99.6685 60.9421 92.1934 60.9421 83C60.9421 73.8067 68.7732 66.3315 78.4043 66.3315C88.0355 66.3315 95.8666 73.8067 95.8666 83C95.8666 92.1934 88.0121 99.6685 78.4043 99.6685ZM112.628 56.3125C112.628 59.6373 109.822 62.2927 106.363 62.2927C102.88 62.2927 100.098 59.615 100.098 56.3125C100.098 53.01 102.903 50.3324 106.363 50.3324C109.822 50.3324 112.628 53.01 112.628 56.3125ZM130.417 62.3819C130.02 54.3712 128.103 47.2754 121.955 41.4291C115.83 35.5828 108.396 33.7531 100.004 33.3514C91.3549 32.8829 65.4304 32.8829 56.781 33.3514C48.4122 33.7308 40.9785 35.5605 34.8305 41.4068C28.6825 47.253 26.789 54.3489 26.3682 62.3596C25.8773 70.6158 25.8773 95.3619 26.3682 103.618C26.7656 111.629 28.6825 118.725 34.8305 124.571C40.9785 130.417 48.3889 132.247 56.781 132.649C65.4304 133.117 91.3549 133.117 100.004 132.649C108.396 132.269 115.83 130.439 121.955 124.571C128.079 118.725 129.996 111.629 130.417 103.618C130.908 95.3619 130.908 70.6381 130.417 62.3819ZM119.243 112.477C117.42 116.85 113.89 120.22 109.285 121.982C102.389 124.593 86.0251 123.991 78.4043 123.991C70.7836 123.991 54.3966 124.571 47.5239 121.982C42.9421 120.242 39.4123 116.873 37.5655 112.477C34.8305 105.894 35.4616 90.2744 35.4616 83C35.4616 75.7257 34.8539 60.0836 37.5655 53.5233C39.3889 49.1497 42.9188 45.7803 47.5239 44.0175C54.42 41.4068 70.7836 42.0093 78.4043 42.0093C86.0251 42.0093 102.412 41.4291 109.285 44.0175C113.867 45.758 117.396 49.1274 119.243 53.5233C121.978 60.1059 121.347 75.7257 121.347 83C121.347 90.2744 121.978 105.916 119.243 112.477Z" fill="#C111DE"/>
<path d="M78.4043 56.8613C63.2829 56.8613 51.0447 68.5105 51.0447 83C51.0447 97.4895 63.2829 109.139 78.4043 109.139C93.5258 109.139 105.764 97.4895 105.764 83C105.764 68.5105 93.5258 56.8613 78.4043 56.8613ZM78.4043 99.1685C69.0501 99.1685 61.4421 91.8951 61.4421 83C61.4421 74.1045 69.0272 66.8315 78.4043 66.8315C87.7815 66.8315 95.3666 74.1045 95.3666 83C95.3666 91.8951 87.7586 99.1685 78.4043 99.1685ZM106.363 62.7927C110.075 62.7927 113.128 59.9363 113.128 56.3125C113.128 52.7122 110.076 49.8324 106.363 49.8324C102.649 49.8324 99.5977 52.7122 99.5977 56.3125C99.5977 59.9116 102.624 62.7927 106.363 62.7927ZM130.916 62.3554C130.515 54.2765 128.576 47.0349 122.299 41.0668C116.052 35.1033 108.478 33.2566 100.03 32.8521C91.3615 32.3826 65.4252 32.3826 56.7562 32.8521C48.3294 33.2343 40.7568 35.0814 34.4859 41.0444C28.2092 47.0131 26.2934 54.2551 25.869 62.3316C25.377 70.6085 25.377 95.3676 25.8689 103.645C26.27 111.724 28.2099 118.965 34.4859 124.933C40.7567 130.896 48.3058 132.743 56.7555 133.148C65.4237 133.617 91.3602 133.617 100.029 133.148C108.479 132.766 116.052 130.919 122.3 124.932C128.552 118.964 130.492 111.723 130.916 103.645C131.408 95.368 131.408 70.6337 130.916 62.3554ZM118.782 112.284C117.013 116.525 113.59 119.799 109.107 121.515C105.749 122.786 100.016 123.29 94.1014 123.466C89.8871 123.591 85.6342 123.55 82.1528 123.516C80.7632 123.503 79.4966 123.491 78.4043 123.491C77.3333 123.491 76.0938 123.502 74.7349 123.515C71.2369 123.547 66.9471 123.586 62.6987 123.458C56.7815 123.279 51.0488 122.775 47.7015 121.515C43.2441 119.822 39.8193 116.549 38.027 112.284C36.6996 109.089 36.1721 103.628 35.9877 97.9815C35.8564 93.9603 35.8994 89.9033 35.9347 86.5805C35.9488 85.2535 35.9616 84.0437 35.9616 83C35.9616 81.9766 35.9498 80.7928 35.9367 79.4951C35.9032 76.1565 35.862 72.0642 35.9964 68.0104C36.1838 62.3613 36.7112 56.8996 38.0273 53.715C39.7956 49.4741 43.2194 46.2009 47.7019 44.4848C51.0604 43.2136 56.7929 42.7101 62.7073 42.5341C66.9215 42.4087 71.1744 42.4499 74.6558 42.4836C76.0454 42.497 77.3121 42.5093 78.4043 42.5093C79.4754 42.5093 80.7148 42.4979 82.0738 42.4855C85.5717 42.4534 89.8615 42.4141 94.1099 42.5425C100.027 42.7213 105.76 43.2247 109.107 44.4849C113.565 46.1783 116.99 49.451 118.782 53.7165C120.109 56.9119 120.637 62.3728 120.821 68.0186C120.952 72.0397 120.909 76.0967 120.874 79.4195C120.86 80.7465 120.847 81.9563 120.847 83C120.847 84.0435 120.86 85.2535 120.874 86.5809C120.909 89.9056 120.952 93.9663 120.821 97.9898C120.637 103.64 120.109 109.101 118.782 112.284Z" stroke="#333030" stroke-opacity="0.5"/>
</g>
<defs>
<filter id="filter0_d" x="0" y="0" width="177" height="177" filterUnits="userSpaceOnUse" color-interpolation-filters="sRGB">
<feFlood flood-opacity="0" result="BackgroundImageFix"/>
<feColorMatrix in="SourceAlpha" type="matrix" values="0 0 0 0 0 0 0 0 0 0 0 0 0 0 0 0 0 0 127 0"/>
<feOffset dx="9" dy="9"/>
<feGaussianBlur stdDeviation="8"/>
<feColorMatrix type="matrix" values="0 0 0 0 1 0 0 0 0 1 0 0 0 0 1 0 0 0 0.4 0"/>
<feBlend mode="normal" in2="BackgroundImageFix" result="effect1_dropShadow"/>
<feBlend mode="normal" in="SourceGraphic" in2="effect1_dropShadow" result="shape"/>
</filter>
<filter id="filter1_d" x="23" y="30" width="114.785" height="110" filterUnits="userSpaceOnUse" color-interpolation-filters="sRGB">
<feFlood flood-opacity="0" result="BackgroundImageFix"/>
<feColorMatrix in="SourceAlpha" type="matrix" values="0 0 0 0 0 0 0 0 0 0 0 0 0 0 0 0 0 0 127 0"/>
<feOffset dx="2" dy="2"/>
<feGaussianBlur stdDeviation="2"/>
<feColorMatrix type="matrix" values="0 0 0 0 0 0 0 0 0 0 0 0 0 0 0 0 0 0 0.25 0"/>
<feBlend mode="normal" in2="BackgroundImageFix" result="effect1_dropShadow"/>
<feBlend mode="normal" in="SourceGraphic" in2="effect1_dropShadow" result="shape"/>
</filter>
</defs>
</svg>
