<svg width="177" height="177" viewBox="0 0 177 177" fill="none" xmlns="http://www.w3.org/2000/svg">
<g filter="url(#filter0_d)">
<path d="M7 27C7 15.9543 15.9543 7 27 7H132C143.046 7 152 15.9543 152 27V132C152 143.046 143.046 152 132 152H27C15.9543 152 7 143.046 7 132V27Z" fill="#303234"/>
</g>
<g filter="url(#filter1_d)">
<path d="M118.721 61.0812C118.785 62.0502 118.785 63.0195 118.785 63.9885C118.785 93.5455 98.1628 127.602 60.4722 127.602C48.8604 127.602 38.0737 123.933 29 117.565C30.6498 117.773 32.236 117.842 33.9492 117.842C43.5303 117.842 52.3503 114.312 59.3935 108.29C50.3833 108.082 42.8325 101.644 40.2309 92.7842C41.5 92.9917 42.769 93.1302 44.1016 93.1302C45.9417 93.1302 47.7819 92.8532 49.495 92.3689C40.1041 90.2921 33.0608 81.2936 33.0608 70.426V70.1492C35.7891 71.8105 38.962 72.8488 42.3247 72.9871C36.8043 68.9722 33.1877 62.1195 33.1877 54.3668C33.1877 50.2136 34.2028 46.4065 35.9795 43.0839C46.0684 56.6511 61.2335 65.5111 78.2385 66.4804C77.9213 64.8191 77.7309 63.0887 77.7309 61.3582C77.7309 49.0368 86.868 39 98.2259 39C104.127 39 109.457 41.6996 113.201 46.0605C117.832 45.0914 122.274 43.2224 126.208 40.6613C124.685 45.8529 121.449 50.2138 117.198 52.9824C121.322 52.4981 125.32 51.2519 129 49.5216C126.209 53.9515 122.719 57.8969 118.721 61.0812Z" fill="#C111DE"/>
<path d="M77.6332 65.9413C61.0458 64.7999 46.2635 56.0755 36.3807 42.7855L35.9103 42.153L35.5386 42.8481C33.7236 46.2423 32.6877 50.1303 32.6877 54.3668C32.6877 61.6395 35.8082 68.1489 40.7077 72.3461C38.0433 71.9951 35.5333 71.0693 33.3208 69.7221L32.5608 69.2593V70.1492V70.426C32.5608 80.7516 38.8017 89.4633 47.4574 92.326C46.3584 92.5232 45.2293 92.6302 44.1016 92.6302C42.804 92.6302 41.5633 92.4954 40.3116 92.2907L39.5273 92.1625L39.7512 92.925C42.2819 101.544 49.4158 107.952 58.0935 108.718C51.3042 114.174 42.9669 117.342 33.9492 117.342C32.2499 117.342 30.6856 117.273 29.0624 117.069L28.7128 117.974C37.8661 124.398 48.7524 128.102 60.4722 128.102C98.5331 128.102 119.285 93.7169 119.285 63.9885V63.9807C119.285 63.102 119.285 62.2074 119.236 61.3095C123.194 58.1174 126.65 54.1881 129.423 49.7881L130.335 48.3416L128.787 49.0691C125.751 50.4966 122.501 51.5885 119.148 52.1882C122.673 49.3663 125.339 45.4003 126.688 40.8021L127.069 39.5046L125.935 40.2423C122.133 42.7178 117.85 44.5378 113.384 45.51C109.565 41.1802 104.183 38.5 98.2259 38.5C86.5508 38.5 77.2309 48.8036 77.2309 61.3582C77.2309 62.9051 77.3799 64.4485 77.6332 65.9413Z" stroke="#333030" stroke-opacity="0.5"/>
</g>
<defs>
<filter id="filter0_d" x="0" y="0" width="177" height="177" filterUnits="userSpaceOnUse" color-interpolation-filters="sRGB">
<feFlood flood-opacity="0" result="BackgroundImageFix"/>
<feColorMatrix in="SourceAlpha" type="matrix" values="0 0 0 0 0 0 0 0 0 0 0 0 0 0 0 0 0 0 127 0"/>
<feOffset dx="9" dy="9"/>
<feGaussianBlur stdDeviation="8"/>
<feColorMatrix type="matrix" values="0 0 0 0 1 0 0 0 0 1 0 0 0 0 1 0 0 0 0.4 0"/>
<feBlend mode="normal" in2="BackgroundImageFix" result="effect1_dropShadow"/>
<feBlend mode="normal" in="SourceGraphic" in2="effect1_dropShadow" result="shape"/>
</filter>
<filter id="filter1_d" x="26.4255" y="36" width="111.244" height="98.602" filterUnits="userSpaceOnUse" color-interpolation-filters="sRGB">
<feFlood flood-opacity="0" result="BackgroundImageFix"/>
<feColorMatrix in="SourceAlpha" type="matrix" values="0 0 0 0 0 0 0 0 0 0 0 0 0 0 0 0 0 0 127 0"/>
<feOffset dx="2" dy="2"/>
<feGaussianBlur stdDeviation="2"/>
<feColorMatrix type="matrix" values="0 0 0 0 0 0 0 0 0 0 0 0 0 0 0 0 0 0 0.25 0"/>
<feBlend mode="normal" in2="BackgroundImageFix" result="effect1_dropShadow"/>
<feBlend mode="normal" in="SourceGraphic" in2="effect1_dropShadow" result="shape"/>
</filter>
</defs>
</svg>
