<svg width="177" height="177" viewBox="0 0 177 177" fill="none" xmlns="http://www.w3.org/2000/svg">
<g filter="url(#filter0_d)">
<path d="M7 27C7 15.9543 15.9543 7 27 7H132C143.046 7 152 15.9543 152 27V132C152 143.046 143.046 152 132 152H27C15.9543 152 7 143.046 7 132V27Z" fill="#303234"/>
</g>
<g filter="url(#filter1_d)">
<path d="M121.022 45.8707C111.67 36.9219 99.2143 32 85.9777 32C58.6562 32 36.4241 53.2216 36.4241 79.3011C36.4241 87.6321 38.7009 95.7713 43.0312 102.952L36 127.455L62.2723 120.871C69.5045 124.642 77.6518 126.624 85.9554 126.624H85.9777C113.277 126.624 136 105.402 136 79.3224C136 66.6875 130.375 54.8196 121.022 45.8707V45.8707ZM85.9777 118.655C78.567 118.655 71.3125 116.759 64.9955 113.179L63.5 112.327L47.9196 116.226L52.0714 101.716L51.0893 100.224C46.9598 93.9602 44.7946 86.7372 44.7946 79.3011C44.7946 57.6321 63.2768 39.9901 86 39.9901C97.0045 39.9901 107.339 44.081 115.107 51.517C122.875 58.9531 127.652 68.8182 127.629 79.3224C127.629 101.013 108.679 118.655 85.9777 118.655V118.655ZM108.567 89.2088C107.339 88.6122 101.246 85.7571 100.107 85.3736C98.9688 84.9688 98.1429 84.777 97.317 85.9702C96.4911 87.1634 94.125 89.8054 93.3884 90.6151C92.6741 91.4034 91.9375 91.5099 90.7098 90.9134C83.433 87.4403 78.6563 84.7131 73.8571 76.8509C72.5848 74.7628 75.1295 74.9119 77.4955 70.3949C77.8973 69.6065 77.6964 68.9247 77.3839 68.3281C77.0714 67.7315 74.5938 61.9148 73.567 59.5497C72.5625 57.2486 71.5357 57.5682 70.7768 57.5256C70.0625 57.483 69.2366 57.483 68.4107 57.483C67.5848 57.483 66.2455 57.7813 65.1071 58.9531C63.9687 60.1463 60.7768 63.0014 60.7768 68.8182C60.7768 74.6349 65.2188 80.26 65.8214 81.0483C66.4464 81.8367 74.5491 93.7685 86.9821 98.9034C94.8393 102.142 97.9196 102.419 101.848 101.865C104.237 101.524 109.17 99.0099 110.196 96.2401C111.223 93.4702 111.223 91.1051 110.911 90.6151C110.621 90.0824 109.795 89.7841 108.567 89.2088Z" fill="#C111DE"/>
<path d="M77.4955 70.3949C76.4433 72.4038 75.3557 73.4898 74.5842 74.26C73.621 75.2218 73.1507 75.6914 73.8571 76.8509M77.4955 70.3949L110.911 90.6151C110.668 90.1696 110.051 89.8881 109.137 89.4714C108.958 89.3898 108.768 89.303 108.567 89.2088C107.339 88.6122 101.246 85.7571 100.107 85.3736C98.9688 84.9688 98.1429 84.777 97.317 85.9702C96.4911 87.1634 94.125 89.8054 93.3884 90.6151C92.6741 91.4034 91.9375 91.5099 90.7098 90.9134C83.433 87.4403 78.6562 84.7131 73.8571 76.8509M77.4955 70.3949C77.8973 69.6065 77.6964 68.9247 77.3839 68.3281C77.1637 67.9078 75.8686 64.8958 74.7635 62.3257C74.3002 61.2482 73.8703 60.2484 73.567 59.5497C72.6843 57.5277 71.7845 57.5292 71.0643 57.5304C70.9648 57.5306 70.8688 57.5307 70.7768 57.5256M77.4955 70.3949L70.7768 57.5256M73.8571 76.8509L74.2839 76.5904M73.8571 76.8509L74.2841 76.5907C74.2841 76.5906 74.284 76.5905 74.2839 76.5904M111.342 90.3624C111.484 90.5961 111.546 90.9366 111.574 91.2696C111.604 91.6386 111.6 92.0964 111.554 92.6171C111.461 93.6599 111.194 94.9871 110.665 96.4139C110.091 97.9641 108.475 99.3598 106.794 100.39C105.099 101.429 103.203 102.177 101.919 102.36L101.918 102.36C99.9157 102.643 98.1081 102.715 95.7996 102.299C93.5047 101.884 90.7322 100.99 86.7916 99.3657L86.7913 99.3656C75.062 94.5213 67.1524 83.7096 65.6535 81.6607C65.5449 81.5122 65.4699 81.4098 65.4296 81.3589L65.4241 81.352L65.4242 81.352C65.4085 81.3314 65.3902 81.3076 65.3694 81.2805C64.9887 80.7852 63.7757 79.2069 62.6316 77.0535C61.4289 74.7899 60.2768 71.8445 60.2768 68.8182C60.2768 63.178 63.1878 60.2022 64.4963 58.8645C64.5877 58.7711 64.6712 58.6857 64.7454 58.608L64.7485 58.6047C65.9984 57.318 67.4769 56.983 68.4107 56.983H68.4206C69.239 56.983 70.0767 56.983 70.8056 57.0264M111.342 90.3624L100.267 84.8998C100.268 84.9002 100.27 84.9007 100.271 84.9012M111.342 90.3624C111.122 89.9678 110.733 89.706 110.327 89.4876C110.046 89.3364 109.702 89.1793 109.325 89.0072C109.15 88.9275 108.968 88.8446 108.782 88.7576C108.161 88.4557 106.33 87.5926 104.512 86.757C102.712 85.9294 100.877 85.1062 100.271 84.9012M111.342 90.3624L100.271 84.9012M70.8056 57.0264C70.806 57.0264 70.8063 57.0264 70.8066 57.0265L70.7768 57.5256M70.8056 57.0264C70.8054 57.0264 70.8051 57.0264 70.8048 57.0264L70.7768 57.5256M70.8056 57.0264C70.8829 57.0307 70.9662 57.0306 71.0722 57.0304H71.0726C71.1741 57.0302 71.2937 57.0301 71.419 57.037C71.6743 57.051 71.9708 57.0944 72.2837 57.2342C72.9205 57.5185 73.4977 58.1413 74.0252 59.3497L74.0256 59.3506C74.3292 60.0498 74.7598 61.0514 75.2236 62.1299C75.5444 62.876 75.8811 63.659 76.2024 64.4041C76.996 66.2442 77.6821 67.8198 77.8268 68.0961C78.1732 68.7574 78.4492 69.6249 77.941 70.6219L77.9385 70.6269L77.9384 70.6269C76.8496 72.7056 75.714 73.839 74.938 74.6134C74.8427 74.7086 74.7527 74.7983 74.669 74.8838C74.2723 75.2884 74.0956 75.5212 74.0382 75.7294C73.9937 75.8905 74.0006 76.1253 74.2839 76.5904M74.2839 76.5904C76.6561 80.4765 79.0111 83.0761 81.6609 85.1331C84.3185 87.196 87.2891 88.7267 90.9252 90.4621L90.9284 90.4636C91.5064 90.7445 91.8943 90.8212 92.1828 90.787C92.4523 90.7551 92.7122 90.6167 93.0179 90.2793L93.0185 90.2786C93.7641 89.4591 96.1033 86.8451 96.9058 85.6856C97.3753 85.0073 97.9041 84.6468 98.5392 84.5757C99.1207 84.5106 99.7152 84.7036 100.271 84.9012M62.2101 121.402C69.4726 125.154 77.6372 127.124 85.9554 127.124H85.9777C113.524 127.124 136.5 105.706 136.5 79.3224C136.5 66.5349 130.807 54.5408 121.368 45.5095C111.92 36.4691 99.3395 31.5 85.9777 31.5C58.4023 31.5 35.9241 52.9238 35.9241 79.3011C35.9241 87.6515 38.1868 95.8109 42.4907 103.023L35.5194 127.317L35.2801 128.15L36.1215 127.94L62.2101 121.402ZM63.7476 111.892L63.5732 111.793L63.3786 111.842L48.6387 115.53L52.5521 101.853L52.6153 101.633L52.489 101.441L51.5069 99.9495L51.5067 99.9492C47.4309 93.7664 45.2946 86.639 45.2946 79.3011C45.2946 57.9301 63.5306 40.4901 86 40.4901C96.8791 40.4901 107.089 44.5336 114.761 51.8782C122.446 59.2342 127.151 68.9735 127.129 79.3214V79.3224C127.129 100.708 108.432 118.155 85.9777 118.155C78.6518 118.155 71.4825 116.28 65.2422 112.744C65.2421 112.744 65.2421 112.744 65.242 112.744L63.7476 111.892Z" stroke="#333030" stroke-opacity="0.5"/>
</g>
<defs>
<filter id="filter0_d" x="0" y="0" width="177" height="177" filterUnits="userSpaceOnUse" color-interpolation-filters="sRGB">
<feFlood flood-opacity="0" result="BackgroundImageFix"/>
<feColorMatrix in="SourceAlpha" type="matrix" values="0 0 0 0 0 0 0 0 0 0 0 0 0 0 0 0 0 0 127 0"/>
<feOffset dx="9" dy="9"/>
<feGaussianBlur stdDeviation="8"/>
<feColorMatrix type="matrix" values="0 0 0 0 1 0 0 0 0 1 0 0 0 0 1 0 0 0 0.4 0"/>
<feBlend mode="normal" in2="BackgroundImageFix" result="effect1_dropShadow"/>
<feBlend mode="normal" in="SourceGraphic" in2="effect1_dropShadow" result="shape"/>
</filter>
<filter id="filter1_d" x="32.5603" y="29" width="110.44" height="105.846" filterUnits="userSpaceOnUse" color-interpolation-filters="sRGB">
<feFlood flood-opacity="0" result="BackgroundImageFix"/>
<feColorMatrix in="SourceAlpha" type="matrix" values="0 0 0 0 0 0 0 0 0 0 0 0 0 0 0 0 0 0 127 0"/>
<feOffset dx="2" dy="2"/>
<feGaussianBlur stdDeviation="2"/>
<feColorMatrix type="matrix" values="0 0 0 0 0 0 0 0 0 0 0 0 0 0 0 0 0 0 0.25 0"/>
<feBlend mode="normal" in2="BackgroundImageFix" result="effect1_dropShadow"/>
<feBlend mode="normal" in="SourceGraphic" in2="effect1_dropShadow" result="shape"/>
</filter>
</defs>
</svg>
